fd_3_states
version=1
nRows=19
nColumns=17
inDegrees=yes

# SIMM Motion File Header:
name fd_3_states
datacolumns 17
datarows 19
otherdata 1
range 0.717367 0.741648
endheader
time	/jointset/r_shoulder/r_shoulder_elev/value	/jointset/r_shoulder/r_shoulder_elev/speed	/jointset/r_elbow/r_elbow_flex/value	/jointset/r_elbow/r_elbow_flex/speed	/forceset/TRIlong/activation	/forceset/TRIlong/fiber_length	/forceset/TRIlat/activation	/forceset/TRIlat/fiber_length	/forceset/TRImed/activation	/forceset/TRImed/fiber_length	/forceset/BIClong/activation	/forceset/BIClong/fiber_length	/forceset/BICshort/activation	/forceset/BICshort/fiber_length	/forceset/BRA/activation	/forceset/BRA/fiber_length
      0.717367	    -13.054395	    -75.400653	    230.788996	    173.668485	      0.041346	      0.161790	      0.391712	      0.102961	      0.383312	      0.098032	      0.142229	      0.094531	      0.038717	      0.092788	      0.033608	      0.046849
      0.718559	    -13.143073	    -73.410852	    230.995389	    172.679388	      0.040992	      0.161683	      0.388602	      0.102910	      0.380092	      0.097981	      0.141496	      0.094750	      0.038409	      0.093009	      0.033529	      0.046918
      0.719751	    -13.229381	    -71.424570	    231.200602	    171.691520	      0.040644	      0.161579	      0.385602	      0.102859	      0.376987	      0.097930	      0.140780	      0.094966	      0.038106	      0.093214	      0.033452	      0.046987
      0.720942	    -13.313323	    -69.439722	    231.404634	    170.696359	      0.040302	      0.161475	      0.382764	      0.102808	      0.374099	      0.097880	      0.139938	      0.095181	      0.037808	      0.093429	      0.033339	      0.047056
      0.722134	    -13.394902	    -67.460219	    231.607483	    169.708904	      0.039966	      0.161374	      0.380072	      0.102757	      0.371407	      0.097829	      0.138992	      0.095395	      0.037515	      0.093634	      0.033197	      0.047125
      0.723677	    -13.497019	    -64.905670	    231.868359	    168.442972	      0.039539	      0.161245	      0.376727	      0.102692	      0.368059	      0.097764	      0.137798	      0.095671	      0.037143	      0.093906	      0.033016	      0.047214
      0.725020	    -13.582681	    -62.692670	    232.093801	    167.362560	      0.039176	      0.161134	      0.373937	      0.102635	      0.365266	      0.097707	      0.136789	      0.095908	      0.036827	      0.094129	      0.032862	      0.047291
      0.726363	    -13.665378	    -60.486877	    232.317801	    166.294177	      0.038820	      0.161026	      0.371256	      0.102578	      0.362581	      0.097650	      0.135804	      0.096143	      0.036516	      0.094364	      0.032710	      0.047367
      0.727705	    -13.745119	    -58.291311	    232.540382	    165.249444	      0.038471	      0.160919	      0.368678	      0.102522	      0.359997	      0.097593	      0.134845	      0.096375	      0.036211	      0.094583	      0.032562	      0.047444
      0.729048	    -13.821917	    -56.103406	    232.761570	    164.218882	      0.038128	      0.160815	      0.366198	      0.102465	      0.357512	      0.097536	      0.133910	      0.096604	      0.035913	      0.094812	      0.032416	      0.047520
      0.730001	    -13.874667	    -54.556213	    232.917790	    163.502027	      0.037889	      0.160742	      0.364494	      0.102425	      0.355803	      0.097496	      0.133260	      0.096766	      0.035704	      0.094966	      0.032314	      0.047574
      0.730610	    -13.907595	    -53.570058	    233.017234	    163.048703	      0.037738	      0.160696	      0.362723	      0.102399	      0.354018	      0.097470	      0.132834	      0.096868	      0.035572	      0.095066	      0.032248	      0.047609
      0.731219	    -13.939922	    -52.585816	    233.116403	    162.599129	      0.037588	      0.160650	      0.360846	      0.102374	      0.352124	      0.097445	      0.132408	      0.096971	      0.035442	      0.095165	      0.032182	      0.047643
      0.733892	    -14.074723	    -48.288265	    233.548394	    160.657177	      0.036947	      0.160454	      0.353006	      0.102265	      0.344213	      0.097336	      0.130597	      0.097413	      0.034882	      0.095595	      0.031898	      0.047792
      0.735188	    -14.135924	    -46.216826	    233.755871	    159.721431	      0.036645	      0.160362	      0.349427	      0.102213	      0.340599	      0.097284	      0.129752	      0.097625	      0.034618	      0.095802	      0.031764	      0.047867
      0.736483	    -14.194447	    -44.153336	    233.962140	    158.792365	      0.036349	      0.160271	      0.345983	      0.102161	      0.337120	      0.097232	      0.128927	      0.097834	      0.034359	      0.096005	      0.031633	      0.047938
      0.738408	    -14.276512	    -41.099078	    234.266533	    157.412669	      0.035918	      0.160140	      0.341098	      0.102084	      0.332185	      0.097155	      0.127736	      0.098141	      0.033983	      0.096305	      0.031442	      0.048046
      0.740028	    -14.341014	    -38.542410	    234.520581	    156.258389	      0.035566	      0.160032	      0.337193	      0.102020	      0.328240	      0.097091	      0.126767	      0.098395	      0.033675	      0.096551	      0.031285	      0.048134
      0.741648	    -14.401384	    -35.997098	    234.772762	    155.105608	      0.035221	      0.159927	      0.333304	      0.101956	      0.324657	      0.097026	      0.125698	      0.098646	      0.033373	      0.096798	      0.031164	      0.048225
